<?xml version="1.0" encoding="utf-8"?>
<!-- Generator: Adobe Illustrator 16.0.0, SVG Export Plug-In . SVG Version: 6.00 Build 0)  -->
<!DOCTYPE svg PUBLIC "-//W3C//DTD SVG 1.1//EN" "http://www.w3.org/Graphics/SVG/1.1/DTD/svg11.dtd">
<svg version="1.1" id="Layer_1" xmlns="http://www.w3.org/2000/svg" xmlns:xlink="http://www.w3.org/1999/xlink" x="0px" y="0px"
	 width="512px" height="512px" viewBox="0 0 512 512" enable-background="new 0 0 512 512" xml:space="preserve">
<g>
	<path d="M208,113.7c0-27.5,21.4-49.7,48-49.7c26.5,0,48,22.2,48,49.7c0,27.6-21.5,49.8-48,49.8C229.401,163.5,208,141.3,208,113.7z
		"/>
	<path d="M208,256c0-27.5,21.4-49.8,48-49.8c26.5,0,48,22.3,48,49.8s-21.5,49.699-48,49.699C229.401,305.699,208,283.5,208,256z"/>
	<path d="M208,398.199c0-27.5,21.4-49.8,48-49.8c26.5,0,48,22.2,48,49.8c0,27.5-21.5,49.801-48,49.801
		C229.401,448,208,425.8,208,398.199z"/>
</g>
</svg>
