<?xml version="1.0" encoding="utf-8"?>
<!-- Generated by IcoMoon.io -->
<!DOCTYPE svg PUBLIC "-//W3C//DTD SVG 1.1//EN" "http://www.w3.org/Graphics/SVG/1.1/DTD/svg11.dtd">
<svg version="1.1" xmlns="http://www.w3.org/2000/svg" xmlns:xlink="http://www.w3.org/1999/xlink" width="17" height="24" viewBox="0 0 17 24">
<path fill="#000000" d="M15.629 8.571q0.241 2.438-1.754 3.455 1.567 0.375 2.344 1.379t0.603 2.866q-0.094 0.951-0.435 1.674t-0.864 1.192-1.299 0.783-1.627 0.462-1.949 0.201v3.415h-2.063v-3.362q-1.071 0-1.634-0.013v3.375h-2.063v-3.415q-0.241 0-0.723-0.007t-0.737-0.007h-2.679l0.415-2.451h1.487q0.67 0 0.777-0.683v-5.384h0.214q-0.080-0.013-0.214-0.013v-3.844q-0.174-0.911-1.192-0.911h-1.487v-2.196l2.839 0.013q0.857 0 1.299-0.013v-3.375h2.063v3.308q1.098-0.027 1.634-0.027v-3.281h2.063v3.375q1.058 0.094 1.875 0.301t1.513 0.603 1.105 1.045 0.489 1.533zM12.75 15.871q0-0.482-0.201-0.857t-0.496-0.616-0.77-0.408-0.877-0.248-0.991-0.121-0.924-0.040-0.864 0.013-0.636 0.013v4.527q0.107 0 0.496 0.007t0.643 0.007 0.71-0.020 0.783-0.054 0.763-0.114 0.743-0.188 0.636-0.281 0.529-0.402 0.328-0.536 0.127-0.683zM11.799 9.496q0-0.442-0.167-0.783t-0.408-0.563-0.643-0.375-0.737-0.221-0.824-0.107-0.777-0.033-0.723 0.013-0.529 0.007v4.112q0.067 0 0.462 0.007t0.623 0 0.67-0.027 0.737-0.074 0.69-0.147 0.65-0.248 0.496-0.362 0.362-0.516 0.121-0.683z"></path>
</svg>
