<?xml version="1.0" encoding="utf-8"?>
<!-- Generated by IcoMoon.io -->
<!DOCTYPE svg PUBLIC "-//W3C//DTD SVG 1.1//EN" "http://www.w3.org/Graphics/SVG/1.1/DTD/svg11.dtd">
<svg version="1.1" xmlns="http://www.w3.org/2000/svg" xmlns:xlink="http://www.w3.org/1999/xlink" width="24" height="24" viewBox="0 0 24 24">
<path fill="#000000" d="M5.277 18.107q-0.107 0.121-0.268-0.040-0.174-0.147-0.054-0.254 0.107-0.121 0.268 0.040 0.161 0.147 0.054 0.254zM4.714 17.29q0.121 0.161 0 0.254-0.107 0.080-0.228-0.094t0-0.241q0.121-0.094 0.228 0.080zM3.897 16.487q-0.067 0.094-0.174 0.027-0.134-0.067-0.094-0.161 0.040-0.067 0.174-0.027 0.134 0.067 0.094 0.161zM4.313 16.942q-0.080 0.094-0.214-0.040-0.121-0.147-0.027-0.214 0.080-0.080 0.214 0.040 0.121 0.147 0.027 0.214zM6.040 18.442q-0.054 0.161-0.254 0.080-0.228-0.054-0.174-0.201t0.254-0.094q0.214 0.067 0.174 0.214zM6.884 18.509q0 0.147-0.214 0.147-0.228 0.027-0.228-0.147 0-0.147 0.214-0.147 0.228-0.027 0.228 0.147zM7.661 18.375q0.027 0.134-0.188 0.188t-0.241-0.107 0.188-0.201q0.214-0.027 0.241 0.121zM20.571 5.571v12.857q0 1.594-1.132 2.725t-2.725 1.132h-3q-0.214 0-0.328-0.013t-0.261-0.067-0.214-0.194-0.067-0.368v-3.201q0-1.299-0.696-1.902 0.763-0.080 1.373-0.241t1.259-0.522 1.085-0.891 0.71-1.406 0.275-2.016q0-1.621-1.058-2.759 0.496-1.219-0.107-2.732-0.375-0.121-1.085 0.147t-1.232 0.589l-0.509 0.321q-1.246-0.348-2.571-0.348t-2.571 0.348q-0.214-0.147-0.569-0.362t-1.118-0.516-1.152-0.181q-0.589 1.513-0.094 2.732-1.058 1.138-1.058 2.759 0 1.138 0.275 2.009t0.703 1.406 1.078 0.897 1.259 0.522 1.373 0.241q-0.536 0.482-0.656 1.379-0.281 0.134-0.603 0.201t-0.763 0.067-0.877-0.288-0.743-0.837q-0.254-0.429-0.65-0.696t-0.663-0.321l-0.268-0.040q-0.281 0-0.388 0.060t-0.067 0.154 0.121 0.188 0.174 0.161l0.094 0.067q0.295 0.134 0.583 0.509t0.422 0.683l0.134 0.308q0.174 0.509 0.589 0.824t0.897 0.402 0.931 0.094 0.743-0.047l0.308-0.054q0 0.509 0.007 1.379t0.007 0.911q0 0.295-0.147 0.449t-0.295 0.174-0.442 0.020h-3q-1.594 0-2.725-1.132t-1.132-2.725v-12.857q0-1.594 1.132-2.725t2.725-1.132h12.857q1.594 0 2.725 1.132t1.132 2.725z"></path>
</svg>
