<?xml version="1.0" encoding="utf-8"?>
<!-- Generated by IcoMoon.io -->
<!DOCTYPE svg PUBLIC "-//W3C//DTD SVG 1.1//EN" "http://www.w3.org/Graphics/SVG/1.1/DTD/svg11.dtd">
<svg version="1.1" xmlns="http://www.w3.org/2000/svg" xmlns:xlink="http://www.w3.org/1999/xlink" width="24" height="24" viewBox="0 0 24 24">
<path fill="#000000" d="M20.64 3.065c0.602 0.295 1.127 0.715 1.512 1.23 0.809 1.085 1.037 2.563 0.676 4.394-0.365 1.852-1.182 3.416-2.371 4.548-0.218 0.227-0.451 0.439-0.699 0.635-1.274 1.003-2.883 1.533-4.653 1.533h-5.626l-1.513 7.095h-3.104l0.236-1.085h1.081l1.513-7.095h4.413c4.225 0 7.756-2.603 8.701-7.030 1.072-5.012-2.522-7.29-5.611-7.29h-10.53l-4.666 21.415h3.563l-0.563 2.585h6.18l1.513-7.095h4.413c4.225 0 7.756-2.603 8.701-7.030 0.79-3.696-0.956-5.905-3.167-6.81zM9.899 4.361h3.027c1.514 0 2.522 1.302 2.081 2.929-0.378 1.627-1.954 2.929-3.531 2.929h-2.901l1.324-5.858z"></path>
</svg>
