<?xml version="1.0" encoding="utf-8"?>
<!-- Generated by IcoMoon.io -->
<!DOCTYPE svg PUBLIC "-//W3C//DTD SVG 1.1//EN" "http://www.w3.org/Graphics/SVG/1.1/DTD/svg11.dtd">
<svg version="1.1" xmlns="http://www.w3.org/2000/svg" xmlns:xlink="http://www.w3.org/1999/xlink" width="31" height="24" viewBox="0 0 31 24">
<path fill="#000000" d="M20.21 19.138q0 0.188-0.161 0.388-0.696 0.79-1.975 1.112t-2.632 0.321q-3.375 0-4.634-1.433-0.161-0.201-0.161-0.388 0-0.228 0.161-0.395t0.388-0.167q0.201 0 0.402 0.161 0.777 0.656 1.681 0.884t2.136 0.228 2.143-0.228 1.701-0.884q0.201-0.161 0.402-0.161 0.228 0 0.388 0.167t0.161 0.395zM13.098 13.902q0 0.817-0.576 1.393t-1.393 0.576q-0.804 0-1.4-0.583t-0.596-1.386q0-0.817 0.589-1.406t1.406-0.589 1.393 0.589 0.576 1.406zM21.723 13.902q0 0.817-0.576 1.393t-1.393 0.576q-0.804 0-1.4-0.583t-0.596-1.386q0-0.817 0.589-1.406t1.406-0.589 1.393 0.589 0.576 1.406zM5.558 9.951q-0.522-0.362-1.179-0.362-0.884 0-1.513 0.629t-0.629 1.513q0 0.964 0.723 1.621 0.71-1.888 2.598-3.402zM27.054 15.455q0-2.973-3.335-5.183-1.714-1.138-3.904-1.694t-4.44-0.556-4.44 0.556-3.917 1.694q-3.335 2.21-3.335 5.183t3.335 5.183q1.728 1.138 3.917 1.694t4.44 0.556 4.44-0.556 3.904-1.694q3.335-2.21 3.335-5.183zM28.621 11.732q0-0.884-0.629-1.513t-1.513-0.629q-0.67 0-1.246 0.402 1.875 1.527 2.571 3.429 0.817-0.643 0.817-1.688zM26.692 2.692q0-0.656-0.462-1.118t-1.105-0.462q-0.656 0-1.118 0.462t-0.462 1.118q0 0.643 0.462 1.105t1.118 0.462q0.643 0 1.105-0.462t0.462-1.105zM29.732 11.732q0 0.871-0.442 1.634t-1.192 1.205q0.067 0.469 0.067 0.884 0 1.862-1.058 3.422t-2.786 2.699q-1.875 1.232-4.199 1.828t-4.748 0.596-4.754-0.596-4.205-1.828q-1.728-1.138-2.786-2.699t-1.058-3.422q0-0.482 0.080-0.951-0.71-0.442-1.118-1.185t-0.408-1.587q0-1.339 0.951-2.297t2.304-0.958q1.219 0 2.129 0.804 3.549-2.277 8.545-2.371l1.929-6.107q0.134-0.388 0.536-0.388 0.321 0 5.143 1.205 0.321-0.737 0.991-1.179t1.473-0.442q1.098 0 1.888 0.79t0.79 1.902-0.79 1.895-1.888 0.783q-1.112 0-1.895-0.783t-0.797-1.882l-4.54-1.071-1.674 5.29q4.674 0.201 8.076 2.397 0.951-0.844 2.183-0.844 1.353 0 2.304 0.958t0.951 2.297z"></path>
</svg>
