<?xml version="1.0" encoding="utf-8"?>
<!-- Generated by IcoMoon.io -->
<!DOCTYPE svg PUBLIC "-//W3C//DTD SVG 1.1//EN" "http://www.w3.org/Graphics/SVG/1.1/DTD/svg11.dtd">
<svg version="1.1" xmlns="http://www.w3.org/2000/svg" xmlns:xlink="http://www.w3.org/1999/xlink" width="24" height="24" viewBox="0 0 24 24">
<path fill="#000000" d="M12.723 15.308q0.094-0.094 0.234-0.094t0.234 0.094 0.094 0.241-0.094 0.241q-0.871 0.857-2.786 0.857h-0.027q-1.915 0-2.772-0.857-0.107-0.094-0.107-0.241t0.107-0.241q0.094-0.094 0.234-0.094t0.234 0.094q0.656 0.683 2.304 0.683h0.027q1.634 0 2.317-0.683zM8.987 12.362q0 0.496-0.348 0.857t-0.844 0.362-0.844-0.362-0.348-0.857 0.348-0.844 0.844-0.348 0.844 0.348 0.348 0.844zM16.259 6.522q-0.388 0-0.67-0.281t-0.281-0.67q0-0.402 0.281-0.683t0.67-0.281q0.402 0 0.683 0.281t0.281 0.683q0 0.388-0.281 0.67t-0.683 0.281zM16.286 1.714q1.768 0 3.027 1.259t1.259 3.040v11.973q0 1.781-1.259 3.040t-3.027 1.259h-12q-1.768 0-3.027-1.259t-1.259-3.040v-11.973q0-1.781 1.259-3.040t3.027-1.259h12zM17.692 12.589q0.469-0.188 0.763-0.609t0.295-0.944q0-0.683-0.482-1.172t-1.165-0.489q-0.804 0-1.313 0.643-2.022-1.433-5.022-1.54l1.112-3.549 2.759 0.656q0.013 0.67 0.489 1.138t1.132 0.469q0.67 0 1.152-0.475t0.482-1.145-0.482-1.152-1.152-0.482q-0.482 0-0.884 0.275t-0.603 0.717l-3.040-0.723q-0.121-0.027-0.234 0.033t-0.154 0.194l-1.272 4.045q-3 0.054-5.103 1.513-0.482-0.576-1.246-0.576-0.683 0-1.165 0.489t-0.482 1.172q0 0.496 0.261 0.904t0.703 0.609q-0.094 0.335-0.094 0.723 0 1.313 0.991 2.431t2.699 1.768 3.73 0.65q2.009 0 3.717-0.65t2.699-1.768 0.991-2.431q0-0.362-0.080-0.723zM13.004 11.17q0.496 0 0.844 0.348t0.348 0.844-0.348 0.857-0.844 0.362-0.844-0.362-0.348-0.857 0.348-0.844 0.844-0.348z"></path>
</svg>
