<?xml version="1.0" encoding="utf-8"?>
<!-- Generated by IcoMoon.io -->
<!DOCTYPE svg PUBLIC "-//W3C//DTD SVG 1.1//EN" "http://www.w3.org/Graphics/SVG/1.1/DTD/svg11.dtd">
<svg version="1.1" xmlns="http://www.w3.org/2000/svg" xmlns:xlink="http://www.w3.org/1999/xlink" width="24" height="24" viewBox="0 0 24 24">
<path fill="#000000" d="M17.143 8.17q-0.75 0.335-1.621 0.455 0.911-0.536 1.246-1.567-0.871 0.509-1.795 0.683-0.817-0.884-2.049-0.884-1.165 0-1.989 0.824t-0.824 1.989q0 0.388 0.067 0.643-1.728-0.094-3.241-0.871t-2.571-2.076q-0.388 0.67-0.388 1.42 0 1.527 1.219 2.344-0.629-0.013-1.339-0.348v0.027q0 1.004 0.67 1.788t1.647 0.971q-0.388 0.107-0.683 0.107-0.174 0-0.522-0.054 0.281 0.844 0.998 1.393t1.627 0.563q-1.554 1.205-3.496 1.205-0.348 0-0.67-0.040 1.982 1.259 4.313 1.259 1.5 0 2.813-0.475t2.25-1.272 1.614-1.835 1.004-2.17 0.328-2.257q0-0.241-0.013-0.362 0.844-0.603 1.406-1.46zM20.571 5.571v12.857q0 1.594-1.132 2.725t-2.725 1.132h-12.857q-1.594 0-2.725-1.132t-1.132-2.725v-12.857q0-1.594 1.132-2.725t2.725-1.132h12.857q1.594 0 2.725 1.132t1.132 2.725z"></path>
</svg>
